# xmcd
#
# Track frame offsets: 
#        150
#        16960
#        34620
#        53230
#
# Disc length: 966 seconds
#
# Revision: 3
# Processed by: cddbd v1.5.2PL0 Copyright (c) Steve Scherf et al.
# Submitted via: ExactAudioCopyFreeDBPlugin 1.0
#
DISCID=2703c404
DTITLE=THE BACK HORN - 戦う君よ
DYEAR=1900
DGENRE=Rock
TTITLE0=戦う君よ
TTITLE1=神の悪戯
TTITLE2=パラノイア
TTITLE3=栄華なる幻想
EXTD=
EXTT0=
EXTT1=
EXTT2=
EXTT3=
PLAYORDER=
